<svg viewBox="0 0 665.38 665.38" xmlns="http://www.w3.org/2000/svg"><g transform="translate(-39.437 -68.267)"><path d="m827.75 586.66a248.33 248.33 0 1 1 -496.65 0 248.33 248.33 0 1 1 496.65 0z" fill="#fff" fill-rule="evenodd" stroke="#0075bd" stroke-width="5.6619" transform="matrix(1.3246 0 0 1.3246 -395.4 -376.16)"/><path d="m827.75 586.66a248.33 248.33 0 1 1 -496.65 0 248.33 248.33 0 1 1 496.65 0z" fill="#0075bd" fill-rule="evenodd" stroke="#0075bd" stroke-width="5.6619" transform="matrix(1.2551 0 0 1.2551 -355.09 -335.35)"/><path d="m262.63 328.61 201.55 1.02 71.25 132.33h-136.4l-142.51-96.7" fill="none" stroke="#fff" stroke-linejoin="round" stroke-width="20.875"/><path d="m270.37 249.31c-10.95 0-19.22-.25-27.7 12.71-2.45 4.32-3.56 9.6-2.66 14.85 1.08 5.97 4.62 11.83 8.78 15.3 5.52 4.6 10.76 4.25 9.91 8.38-1.09 5.3-4.4 12.67-7.98 24.64-3.64 12.14-7.95 27.01-12.19 41.65-4.24 14.65-8.39 29.07-11.69 40.32-1.64 5.62-3.08 10.44-4.18 14.06-1.08 3.52-2.03 6.26-1.94 6.06-3.43 6.04-3.9 9.97-9.65 15.1-6.45 5.65-11.7 9.82-13.53 11.09-4.62 3.37-6.78 10.46-4.33 13.97 3.08 4.78 9.44 5.51 14.09 4.08 4.42-1.4 11.41-3.81 19.51-10.52l.07-.09.09-.07c11.28-9.67 15.45-21.41 15.87-22.09l.6-.91.4-1c.98-2.4 1.57-4.52 2.72-8.31 1.16-3.78 2.62-8.68 4.28-14.34 3.32-11.34 7.46-25.79 11.69-40.41s8.54-29.41 12.13-41.4c3.58-12 5.85-21.85 6.69-23.94 2.04-5.1 3.08-10.61 1.69-16.13-1.4-5.52-5.56-9.97-9.3-11.01-8.54-2.39-6.28-8.53-1.91-8.54l36.61-.07.09-23.38z" fill="#fff" fill-rule="evenodd"/><g stroke="#fff"><path d="m278.91 461.96a78.381 78.381 0 1 1 -156.76 0 78.381 78.381 0 1 1 156.76 0z" fill="none" stroke-width="26"/><path d="m278.91 461.96a78.381 78.381 0 1 1 -156.76 0 78.381 78.381 0 1 1 156.76 0z" fill="none" stroke-width="26" transform="translate(335.92 1.5269)"/><path d="m401.64 457.82 69.1-169.15" fill="none" stroke-width="25"/><path d="m370.69 403.84 56.14 118.76" fill="none" stroke-linecap="round" stroke-width="9.125"/><path d="m278.91 461.96a78.381 78.381 0 1 1 -156.76 0 78.381 78.381 0 1 1 156.76 0z" fill="#0075bd" fill-rule="evenodd" stroke-width="31.305" transform="matrix(.39286 0 0 .40584 321.01 274.73)"/><path d="m355.7 407.48 36.88.34" fill="none" stroke-width="12.75"/><path d="m408.03 517.61 36.88.33" fill="none" stroke-width="12.75"/><path d="m504.57 273.55h-86.73c-3.24 0-7.42 5.73-3.24 9.54 4.52 4.3 45.16 13.14 45.16 13.14s11.16 3.06 17.1 2.34 26.45-2.52 27.71-25.02z" fill="#fff" fill-rule="evenodd" stroke-width="1pt"/></g></g></svg>